<mxfile host="app.diagrams.net" modified="2023-09-06T12:35:07.269Z" agent="Mozilla/5.0 (Macintosh; Intel Mac OS X 10_15_7) AppleWebKit/537.36 (KHTML, like Gecko) Chrome/116.0.0.0 Safari/537.36" etag="SJfhar4u11K9oHL3aX1k" version="21.7.2" type="device">
  <diagram name="Страница — 1" id="HDmuQ_e-vNLzfEqcs2hZ">
    <mxGraphModel dx="895" dy="891" grid="1" gridSize="10" guides="1" tooltips="1" connect="1" arrows="1" fold="1" page="1" pageScale="1" pageWidth="827" pageHeight="1169" math="0" shadow="0">
      <root>
        <mxCell id="0" />
        <mxCell id="1" parent="0" />
        <mxCell id="YM97L5umva2GjvXXWI7l-8" style="edgeStyle=orthogonalEdgeStyle;rounded=0;orthogonalLoop=1;jettySize=auto;html=1;entryX=0.5;entryY=0;entryDx=0;entryDy=0;" edge="1" parent="1" source="YM97L5umva2GjvXXWI7l-1" target="YM97L5umva2GjvXXWI7l-2">
          <mxGeometry relative="1" as="geometry" />
        </mxCell>
        <mxCell id="YM97L5umva2GjvXXWI7l-1" value="start" style="rounded=1;whiteSpace=wrap;html=1;" vertex="1" parent="1">
          <mxGeometry x="240" y="20" width="120" height="60" as="geometry" />
        </mxCell>
        <mxCell id="YM97L5umva2GjvXXWI7l-23" style="edgeStyle=orthogonalEdgeStyle;rounded=0;orthogonalLoop=1;jettySize=auto;html=1;" edge="1" parent="1" source="YM97L5umva2GjvXXWI7l-2" target="YM97L5umva2GjvXXWI7l-12">
          <mxGeometry relative="1" as="geometry" />
        </mxCell>
        <mxCell id="YM97L5umva2GjvXXWI7l-2" value="n" style="shape=parallelogram;perimeter=parallelogramPerimeter;whiteSpace=wrap;html=1;fixedSize=1;" vertex="1" parent="1">
          <mxGeometry x="240" y="130" width="120" height="50" as="geometry" />
        </mxCell>
        <mxCell id="YM97L5umva2GjvXXWI7l-22" style="edgeStyle=orthogonalEdgeStyle;rounded=0;orthogonalLoop=1;jettySize=auto;html=1;entryX=0;entryY=0.5;entryDx=0;entryDy=0;" edge="1" parent="1" source="YM97L5umva2GjvXXWI7l-12" target="YM97L5umva2GjvXXWI7l-13">
          <mxGeometry relative="1" as="geometry" />
        </mxCell>
        <mxCell id="YM97L5umva2GjvXXWI7l-31" value="yes&lt;br&gt;" style="edgeLabel;html=1;align=center;verticalAlign=middle;resizable=0;points=[];" vertex="1" connectable="0" parent="YM97L5umva2GjvXXWI7l-22">
          <mxGeometry x="-0.25" y="-4" relative="1" as="geometry">
            <mxPoint as="offset" />
          </mxGeometry>
        </mxCell>
        <mxCell id="YM97L5umva2GjvXXWI7l-24" value="no&lt;br&gt;" style="edgeStyle=orthogonalEdgeStyle;rounded=0;orthogonalLoop=1;jettySize=auto;html=1;entryX=0.5;entryY=0;entryDx=0;entryDy=0;" edge="1" parent="1" source="YM97L5umva2GjvXXWI7l-12" target="YM97L5umva2GjvXXWI7l-14">
          <mxGeometry relative="1" as="geometry" />
        </mxCell>
        <mxCell id="YM97L5umva2GjvXXWI7l-12" value="n == 0" style="rhombus;whiteSpace=wrap;html=1;" vertex="1" parent="1">
          <mxGeometry x="260" y="220" width="80" height="80" as="geometry" />
        </mxCell>
        <mxCell id="YM97L5umva2GjvXXWI7l-13" value="f = 1" style="rounded=0;whiteSpace=wrap;html=1;" vertex="1" parent="1">
          <mxGeometry x="380" y="230" width="120" height="60" as="geometry" />
        </mxCell>
        <mxCell id="YM97L5umva2GjvXXWI7l-25" value="" style="edgeStyle=orthogonalEdgeStyle;rounded=0;orthogonalLoop=1;jettySize=auto;html=1;" edge="1" parent="1" source="YM97L5umva2GjvXXWI7l-14" target="YM97L5umva2GjvXXWI7l-16">
          <mxGeometry relative="1" as="geometry" />
        </mxCell>
        <mxCell id="YM97L5umva2GjvXXWI7l-14" value="f = 1&lt;br&gt;k = 1&lt;br&gt;&lt;br&gt;" style="rounded=0;whiteSpace=wrap;html=1;" vertex="1" parent="1">
          <mxGeometry x="240" y="330" width="120" height="60" as="geometry" />
        </mxCell>
        <mxCell id="YM97L5umva2GjvXXWI7l-27" value="yes&lt;br&gt;" style="edgeStyle=orthogonalEdgeStyle;rounded=0;orthogonalLoop=1;jettySize=auto;html=1;" edge="1" parent="1" source="YM97L5umva2GjvXXWI7l-15" target="YM97L5umva2GjvXXWI7l-17">
          <mxGeometry relative="1" as="geometry" />
        </mxCell>
        <mxCell id="YM97L5umva2GjvXXWI7l-28" style="edgeStyle=orthogonalEdgeStyle;rounded=0;orthogonalLoop=1;jettySize=auto;html=1;entryX=1;entryY=0.5;entryDx=0;entryDy=0;" edge="1" parent="1" source="YM97L5umva2GjvXXWI7l-15" target="YM97L5umva2GjvXXWI7l-21">
          <mxGeometry relative="1" as="geometry" />
        </mxCell>
        <mxCell id="YM97L5umva2GjvXXWI7l-32" value="no&lt;br&gt;" style="edgeLabel;html=1;align=center;verticalAlign=middle;resizable=0;points=[];" vertex="1" connectable="0" parent="YM97L5umva2GjvXXWI7l-28">
          <mxGeometry x="-0.1" relative="1" as="geometry">
            <mxPoint as="offset" />
          </mxGeometry>
        </mxCell>
        <mxCell id="YM97L5umva2GjvXXWI7l-15" value="k == n" style="rhombus;whiteSpace=wrap;html=1;" vertex="1" parent="1">
          <mxGeometry x="260" y="490" width="80" height="80" as="geometry" />
        </mxCell>
        <mxCell id="YM97L5umva2GjvXXWI7l-26" value="" style="edgeStyle=orthogonalEdgeStyle;rounded=0;orthogonalLoop=1;jettySize=auto;html=1;" edge="1" parent="1" source="YM97L5umva2GjvXXWI7l-16" target="YM97L5umva2GjvXXWI7l-15">
          <mxGeometry relative="1" as="geometry" />
        </mxCell>
        <mxCell id="YM97L5umva2GjvXXWI7l-16" value="f = f * k" style="rounded=0;whiteSpace=wrap;html=1;" vertex="1" parent="1">
          <mxGeometry x="240" y="410" width="120" height="40" as="geometry" />
        </mxCell>
        <mxCell id="YM97L5umva2GjvXXWI7l-34" value="" style="edgeStyle=orthogonalEdgeStyle;rounded=0;orthogonalLoop=1;jettySize=auto;html=1;" edge="1" parent="1" source="YM97L5umva2GjvXXWI7l-17" target="YM97L5umva2GjvXXWI7l-33">
          <mxGeometry relative="1" as="geometry" />
        </mxCell>
        <mxCell id="YM97L5umva2GjvXXWI7l-17" value="print(f)" style="shape=document;whiteSpace=wrap;html=1;boundedLbl=1;" vertex="1" parent="1">
          <mxGeometry x="240" y="600" width="120" height="80" as="geometry" />
        </mxCell>
        <mxCell id="YM97L5umva2GjvXXWI7l-20" value="" style="endArrow=classic;html=1;rounded=0;exitX=0.5;exitY=1;exitDx=0;exitDy=0;entryX=1;entryY=0.5;entryDx=0;entryDy=0;" edge="1" parent="1" source="YM97L5umva2GjvXXWI7l-13" target="YM97L5umva2GjvXXWI7l-17">
          <mxGeometry width="50" height="50" relative="1" as="geometry">
            <mxPoint x="320" y="580" as="sourcePoint" />
            <mxPoint x="370" y="530" as="targetPoint" />
            <Array as="points">
              <mxPoint x="440" y="640" />
            </Array>
          </mxGeometry>
        </mxCell>
        <mxCell id="YM97L5umva2GjvXXWI7l-21" value="k = k + 1" style="rounded=0;whiteSpace=wrap;html=1;" vertex="1" parent="1">
          <mxGeometry x="40" y="500" width="120" height="60" as="geometry" />
        </mxCell>
        <mxCell id="YM97L5umva2GjvXXWI7l-33" value="end&lt;br&gt;" style="rounded=1;whiteSpace=wrap;html=1;" vertex="1" parent="1">
          <mxGeometry x="240" y="720" width="120" height="60" as="geometry" />
        </mxCell>
        <mxCell id="YM97L5umva2GjvXXWI7l-35" value="" style="endArrow=classic;html=1;rounded=0;exitX=0.5;exitY=0;exitDx=0;exitDy=0;entryX=0;entryY=0.5;entryDx=0;entryDy=0;" edge="1" parent="1" source="YM97L5umva2GjvXXWI7l-21" target="YM97L5umva2GjvXXWI7l-16">
          <mxGeometry width="50" height="50" relative="1" as="geometry">
            <mxPoint x="220" y="440" as="sourcePoint" />
            <mxPoint x="270" y="390" as="targetPoint" />
            <Array as="points">
              <mxPoint x="100" y="430" />
            </Array>
          </mxGeometry>
        </mxCell>
      </root>
    </mxGraphModel>
  </diagram>
</mxfile>
